<?xml version="1.0" standalone="no"?>
<!DOCTYPE svg PUBLIC "-//W3C//DTD SVG 20010904//EN"
 "http://www.w3.org/TR/2001/REC-SVG-20010904/DTD/svg10.dtd">
<svg version="1.0" xmlns="http://www.w3.org/2000/svg"
 width="512.000000pt" height="512.000000pt" viewBox="0 0 512.000000 512.000000"
 preserveAspectRatio="xMidYMid meet">

<g transform="translate(0.000000,512.000000) scale(0.100000,-0.100000)"
fill="#000000" stroke="none">
<path d="M2420 5114 c-322 -40 -591 -171 -815 -398 -199 -201 -313 -415 -372
-696 -24 -118 -24 -382 0 -500 59 -281 174 -496 372 -696 201 -203 421 -322
705 -381 117 -24 380 -24 502 0 270 54 494 174 694 372 202 199 322 421 381
705 24 118 24 382 0 500 -39 185 -110 356 -212 510 -63 95 -258 291 -351 352
-161 107 -335 180 -506 213 -81 16 -328 28 -398 19z m321 -968 c283 -189 405
-276 419 -299 26 -42 26 -112 0 -154 -14 -23 -136 -110 -419 -299 -338 -225
-406 -267 -443 -271 -54 -5 -104 19 -135 66 l-23 34 0 547 0 547 23 34 c31 47
81 71 135 66 37 -4 105 -46 443 -271z"/>
<path d="M2430 3770 c0 -174 2 -211 14 -208 16 4 316 201 316 208 0 7 -300
204 -316 208 -12 3 -14 -34 -14 -208z"/>
<path d="M786 2177 c-45 -25 -76 -77 -76 -125 0 -41 32 -104 62 -123 13 -8
228 -111 478 -228 597 -280 669 -318 767 -396 84 -67 177 -171 223 -248 l25
-42 -35 23 c-19 13 -75 43 -125 67 -122 58 -1465 545 -1505 545 -72 0 -118
-45 -159 -157 -27 -74 -28 -82 -13 -88 9 -3 493 -180 1075 -391 l1058 -385
1022 372 c562 204 1045 380 1074 391 l51 19 -30 82 c-40 112 -86 157 -158 157
-35 0 -1393 -491 -1507 -545 -39 -18 -89 -45 -109 -59 -21 -14 -40 -24 -42
-21 -6 5 58 94 117 163 69 82 194 177 311 236 58 30 314 152 570 272 256 119
475 224 488 232 30 20 62 83 62 124 0 75 -74 147 -150 148 -24 0 -191 -74
-580 -257 -300 -141 -571 -272 -603 -290 -163 -96 -337 -260 -435 -411 -31
-49 -63 -98 -69 -108 -13 -19 -13 -19 -25 0 -108 165 -146 215 -220 292 -90
93 -197 176 -306 238 -35 20 -303 148 -596 286 -377 177 -542 250 -566 250
-19 0 -53 -10 -74 -23z"/>
<path d="M106 1170 c-58 -18 -106 -83 -106 -142 0 -40 28 -96 61 -120 33 -24
2467 -908 2501 -908 33 0 2464 884 2497 908 109 80 53 264 -81 266 -33 0 -322
-101 -1230 -432 l-1187 -432 -1181 430 c-650 236 -1195 431 -1213 434 -18 3
-45 1 -61 -4z"/>
</g>
</svg>
